<?xml version="1.0" standalone="no"?>
<svg viewBox="0 0 200 200" xmlns="http://www.w3.org/2000/svg">
  <path fill="#BAE6FF" d="M24.2,-41.8C36.1,-35.1,53.7,-38.2,64.5,-32.8C75.2,-27.5,79,-13.7,74.5,-2.6C69.9,8.5,57.1,17,45.9,21.5C34.7,26.1,25.2,26.6,17.8,32.8C10.5,39.1,5.2,50.9,-1.7,53.9C-8.7,56.9,-17.4,51,-21.4,42.9C-25.4,34.8,-24.8,24.3,-29.6,16.8C-34.5,9.3,-45,4.6,-48.9,-2.2C-52.7,-9.1,-50,-18.2,-45.5,-26.4C-41,-34.7,-34.8,-42,-26.9,-51C-19,-60,-9.5,-70.5,-1.7,-67.6C6.2,-64.7,12.4,-48.4,24.2,-41.8Z" transform="translate(100 100)" />
</svg>
