<?xml version="1.0" standalone="no"?><svg xmlns="http://www.w3.org/2000/svg" viewBox="0 0 1440 320"><path fill="#0099ff" fill-opacity="1" d="M0,128L21.8,128C43.6,128,87,128,131,154.7C174.5,181,218,235,262,240C305.5,245,349,203,393,181.3C436.4,160,480,160,524,160C567.3,160,611,160,655,181.3C698.2,203,742,245,785,250.7C829.1,256,873,224,916,202.7C960,181,1004,171,1047,170.7C1090.9,171,1135,181,1178,181.3C1221.8,181,1265,171,1309,154.7C1352.7,139,1396,117,1418,106.7L1440,96L1440,320L1418.2,320C1396.4,320,1353,320,1309,320C1265.5,320,1222,320,1178,320C1134.5,320,1091,320,1047,320C1003.6,320,960,320,916,320C872.7,320,829,320,785,320C741.8,320,698,320,655,320C610.9,320,567,320,524,320C480,320,436,320,393,320C349.1,320,305,320,262,320C218.2,320,175,320,131,320C87.3,320,44,320,22,320L0,320Z"></path></svg>